<?xml version="1.0" encoding="UTF-8" standalone="no"?>
<svg width="176px" height="40px" viewBox="0 0 176 40" version="1.1" xmlns="http://www.w3.org/2000/svg" xmlns:xlink="http://www.w3.org/1999/xlink" xmlns:sketch="http://www.bohemiancoding.com/sketch/ns">
    <!-- Generator: Sketch 3.1 (8751) - http://www.bohemiancoding.com/sketch -->
    <title>Artboard 5</title>
    <desc>Created with Sketch.</desc>
    <defs></defs>
    <g id="Page-1" stroke="none" stroke-width="1" fill="none" fill-rule="evenodd" sketch:type="MSPage">
        <g id="Artboard-5" sketch:type="MSArtboardGroup">
            <g id="forsyth-barr-logo" sketch:type="MSLayerGroup" transform="translate(4.000000, 4.000000)">
                <g id="Imported-Layers" sketch:type="MSShapeGroup">
                    <path d="M22.8992,-0.58368 L9.1712,-0.58368 L21.92384,1.07136 L10.14016,1.07136 L20.94464,2.75328 L11.12448,2.75328 L19.96032,4.43648 L12.10624,4.43648 L18.98112,6.1184 L13.09184,6.1184 L17.9968,7.80032 L14.07616,7.80032 L17.0176,9.48224 L15.05408,9.48224 L16.03584,11.15904 L22.8992,-0.58368" id="Fill-1" fill="#FFFFFF"></path>
                    <path d="M32.61184,9.1264 L22.90432,-0.57984 L30.752,9.60768 L22.41792,1.2736 L28.8704,10.10432 L21.9264,3.1616 L26.98368,10.59584 L21.42976,5.0432 L25.10208,11.09376 L20.93696,6.92992 L23.21664,11.58784 L20.44416,8.81664 L21.33376,12.0832 L19.94496,10.69568 L19.45472,12.576 L32.61184,9.1264" id="Fill-2" fill="#FFFFFF"></path>
                    <path d="M32.6144,22.85952 L32.6144,9.13152 L30.9568,21.88544 L30.9568,10.10048 L29.27616,20.90368 L29.27616,11.0848 L27.59424,19.92192 L27.59424,12.06656 L25.91232,18.94144 L25.91232,13.05088 L24.22912,17.95712 L24.22912,14.03776 L22.54848,16.97792 L22.54848,15.0144 L20.8704,15.99488 L32.6144,22.85952" id="Fill-3" fill="#FFFFFF"></path>
                    <path d="M22.90432,32.57088 L32.61056,22.86464 L22.42304,30.71232 L30.75584,22.37824 L21.9264,28.82944 L28.8704,21.888 L21.43232,26.94528 L26.98752,21.39136 L20.9344,25.06368 L25.1008,20.89856 L20.44288,23.17568 L23.21408,20.40448 L19.94624,21.29536 L21.33376,19.90784 L19.45344,19.41504 L22.90432,32.57088" id="Fill-4" fill="#E42031"></path>
                    <path d="M9.16992,32.57472 L22.89792,32.57472 L10.14528,30.9184 L21.93024,30.9184 L11.12448,29.23648 L20.94464,29.23648 L12.1088,27.55456 L19.96416,27.55456 L13.088,25.87264 L18.97728,25.87264 L14.07232,24.18944 L17.99296,24.18944 L15.0528,22.50752 L17.01504,22.50752 L16.03328,20.83072 L9.16992,32.57472" id="Fill-5" fill="#FFFFFF"></path>
                    <path d="M-0.54272,22.86336 L9.16352,32.57088 L1.31712,22.38208 L9.6512,30.71744 L3.19872,21.888 L10.14272,28.82944 L5.08416,21.39264 L10.63936,26.94784 L6.96704,20.896 L11.13088,25.0624 L8.85248,20.4032 L11.62368,23.1744 L10.73536,19.90784 L12.12288,21.29664 L12.6144,19.41376 L-0.54272,22.86336" id="Fill-6" fill="#FFFFFF"></path>
                    <path d="M-0.544,9.13024 L-0.544,22.85824 L1.11104,10.10688 L1.11104,21.89056 L2.79296,11.08608 L2.79296,20.90368 L4.47616,12.0704 L4.47616,19.9232 L6.1568,13.04832 L6.1568,18.93888 L7.84,14.03264 L7.84,17.952 L9.52192,15.01312 L9.52192,16.97664 L11.19872,15.9936 L-0.544,9.13024" id="Fill-7" fill="#FFFFFF"></path>
                    <path d="M9.1648,-0.5824 L-0.54144,9.12512 L9.64736,1.27872 L1.31328,9.61152 L10.14272,3.16032 L3.19872,10.1056 L10.63808,5.04576 L5.08288,10.59968 L11.13216,6.92736 L6.96832,11.09248 L11.62752,8.8128 L8.85632,11.584 L12.12288,10.69568 L10.73536,12.0832 L12.61568,12.57472 L9.1648,-0.5824" id="Fill-8" fill="#FFFFFF"></path>
                </g>
                <g id="Imported-Layers" transform="translate(41.666667, 9.333333)" fill="#FFFFFF" sketch:type="MSShapeGroup">
                    <path d="M3.93776853,7.68901366 C3.93776853,9.34222002 3.93776853,10.6353799 4.02479382,11.3588143 C4.07583749,11.8583684 4.17959841,12.2376284 4.6942191,12.3061292 C4.93604899,12.3387088 5.31427428,12.3729591 5.5544306,12.357087 C5.77785129,12.357087 5.84646738,12.4097156 5.84646738,12.4957592 C5.84646738,12.6177239 5.72597083,12.6686817 5.46907887,12.6686817 C4.38460991,12.6686817 3.30097772,12.6252423 2.85413634,12.6252423 C2.40729497,12.6252423 1.322826,12.6686817 0.668462782,12.6686817 C0.42830646,12.6686817 0.306973127,12.6352668 0.306973127,12.4957592 C0.306973127,12.4097156 0.376426,12.357087 0.565538644,12.357087 C0.824104161,12.357087 1.02995244,12.3228366 1.18559382,12.3061292 C1.52783749,12.2376284 1.614026,11.8592037 1.68264209,11.3613205 C1.76966738,10.6412275 1.76966738,9.35391527 1.76966738,7.70572115 L1.76966738,4.68584192 C1.76966738,2.076967 1.76966738,1.59579122 1.73452255,1.0469501 C1.70021451,0.462187872 1.56298232,0.188184998 0.995644391,0.0687264285 C0.857575425,0.0344760693 0.565538644,0.017768577 0.325382322,0.017768577 C0.153842092,0.017768577 0.0333455404,-0.0181525314 0.0333455404,-0.127586606 C0.0333455404,-0.264588043 0.171414506,-0.298838402 0.42830646,-0.298838402 C1.322826,-0.298838402 2.40729497,-0.24788055 2.90518002,-0.24788055 C3.55870646,-0.24788055 7.05059612,-0.24788055 7.46229267,-0.261246544 C7.78863749,-0.277954037 7.99364899,-0.277954037 8.16435244,-0.329747263 C8.26811336,-0.363997622 8.3526283,-0.433333715 8.43965359,-0.433333715 C8.50910646,-0.433333715 8.56015014,-0.363997622 8.56015014,-0.277954037 C8.56015014,-0.156824717 8.47396163,0.0511835616 8.42208117,0.496438231 C8.40450876,0.668525402 8.37020071,1.68099943 8.33589267,1.88065397 C8.31832025,2.01849078 8.28484899,2.12124186 8.16435244,2.12124186 C8.04552945,2.12124186 8.0112214,2.03519827 7.99364899,1.84640361 C7.99364899,1.7085668 7.99364899,1.43456392 7.89072485,1.19314066 C7.77106508,0.953388145 7.41041221,0.696092764 6.75604899,0.679385272 L4.09424669,0.627592046 C3.99048577,0.627592046 3.93776853,0.679385272 3.93776853,0.868179935 L3.93776853,5.14863946 C3.93776853,5.25055516 3.95534094,5.30234839 4.05910186,5.30234839 L6.25900071,5.28480552 C6.55103749,5.28480552 6.79035703,5.28480552 7.03135014,5.26726265 C7.35769497,5.25055516 7.59952485,5.18205444 7.77357543,4.9598448 C7.85976393,4.85709372 7.89490876,4.78775763 7.9978329,4.78775763 C8.06561221,4.78775763 8.09992025,4.83955085 8.09992025,4.94230193 C8.09992025,5.04505301 8.01540531,5.47276481 7.96436163,6.00239232 C7.9292168,6.34322516 7.89490876,7.13432492 7.89490876,7.25378349 C7.89490876,7.40832779 7.89490876,7.58041496 7.72085818,7.58041496 C7.61626048,7.58041496 7.58111566,7.46012102 7.58111566,7.3389917 C7.58111566,7.2203685 7.54680761,7.01403097 7.47819152,6.80769344 C7.39200301,6.56794093 7.13427428,6.25801695 6.60124439,6.1903516 C6.17281221,6.13855838 4.35030186,6.13855838 4.05993864,6.13855838 C3.97375014,6.13855838 3.93776853,6.17280874 3.93776853,6.29310268 L3.93776853,7.68901366 M15.4569042,12.8641594 C19.1278651,12.8641594 21.4440766,10.2419185 21.4440766,6.92882276 C21.4440766,3.61739779 19.1998283,1.53146738 15.6016674,1.53146738 C11.2629547,1.53146738 9.62620991,4.71591541 9.62620991,7.19029502 C9.62620991,9.75071821 11.3064674,12.8641594 15.4569042,12.8641594 M16.0635708,12.1382189 C13.2871294,12.1382189 11.626118,9.75071821 11.626118,6.74169885 C11.626118,3.13956351 13.5197547,2.21313306 15.181603,2.21313306 C17.5522053,2.21313306 19.4173915,4.22387976 19.4173915,7.46429789 C19.4173915,11.6461832 17.0752398,12.1382189 16.0635708,12.1382189 M23.315957,8.46591205 C23.315957,9.81002981 23.315957,10.9519869 23.2439938,11.5593043 C23.1854191,11.9786623 23.1134559,12.2961047 22.8230927,12.3554163 C22.6933915,12.3763006 22.5193409,12.4055387 22.3026145,12.4055387 C22.1277271,12.4055387 22.0699892,12.4498136 22.0699892,12.5224912 C22.0699892,12.6252423 22.1720766,12.6686817 22.3603524,12.6686817 C22.9394053,12.6686817 23.852334,12.6252423 24.1276352,12.6252423 C24.3443616,12.6252423 25.4171157,12.6686817 26.2572444,12.6686817 C26.4455203,12.6686817 26.5467708,12.6252423 26.5467708,12.5224912 C26.5467708,12.4498136 26.4881961,12.4055387 26.3718835,12.4055387 C26.1986697,12.4130571 25.8798559,12.383819 25.6631294,12.3554163 C25.2288398,12.2961047 25.1409777,11.9778269 25.0983019,11.5567981 C25.0255019,10.94781 25.0255019,9.80084069 25.0255019,8.45254606 L25.0255019,8.24955003 C25.0255019,8.16183569 25.0690145,8.13343296 25.1409777,8.13343296 L26.4020076,8.16183569 C26.5032582,8.16183569 26.5894467,8.17687244 26.6622467,8.26291602 C26.8513593,8.4809488 27.5174375,9.46752622 28.0964904,10.265309 C28.9190467,11.3796987 29.469649,12.0588583 30.0922145,12.3913374 C30.4687662,12.5968395 30.8319294,12.6686817 31.6427708,12.6686817 L33.0184398,12.6686817 C33.1924904,12.6686817 33.2937409,12.640279 33.2937409,12.5224912 C33.2937409,12.4498136 33.2351662,12.4055387 33.1196904,12.4055387 C33.0033777,12.4055387 32.8736766,12.3913374 32.7146881,12.3629346 C32.4971249,12.3194951 31.9030099,12.2184148 31.0913317,11.3796987 C30.2378145,10.4825064 29.2378605,9.19519409 27.94838,7.57456734 C29.4110743,6.38833539 29.860426,5.40426409 29.860426,4.33498458 C29.860426,3.36511466 29.2805363,2.62831425 28.875534,2.353476 C28.09398,1.81633012 27.1191294,1.72778041 26.2036904,1.72778041 C25.7526651,1.72778041 24.6489501,1.77205527 24.1560858,1.77205527 C23.852334,1.77205527 22.9394053,1.72778041 22.1720766,1.72778041 C21.9545134,1.72778041 21.8532628,1.75701852 21.8532628,1.85893423 C21.8532628,1.96084993 21.9402881,1.99175879 22.0992766,1.99175879 C22.3026145,1.99175879 22.5486283,2.00596016 22.6649409,2.03519827 C23.1419065,2.13544322 23.2582191,2.36767737 23.2875065,2.85971302 C23.315957,3.32251055 23.315957,3.72766724 23.315957,5.92637323 L23.315957,8.46591205 L23.315957,8.46591205 Z M25.0255019,2.66841223 C25.0255019,2.55145978 25.0547892,2.49381893 25.1560398,2.4654162 C25.3016398,2.42114134 25.5635524,2.40693997 25.9275524,2.40693997 C26.7844168,2.40693997 28.1508812,3.0017267 28.1508812,5.058419 C28.1508812,6.24715708 27.72998,6.91378602 27.29318,7.23289912 C27.0312674,7.42085841 26.8429915,7.47933463 26.2614283,7.47933463 C25.8982651,7.47933463 25.4623019,7.43589515 25.1560398,7.33397945 C25.0547892,7.29053997 25.0255019,7.23289912 25.0255019,7.07334257 L25.0255019,2.66841223 L25.0255019,2.66841223 Z M33.8443432,12.4974299 C33.6133915,12.397185 33.5698789,12.3270135 33.5698789,12.0112419 C33.5698789,11.2159653 33.6276168,10.3471757 33.6426789,10.1166123 C33.6577409,9.89857952 33.69958,9.73985834 33.8158927,9.73985834 C33.9455938,9.73985834 33.9606559,9.87017678 33.9606559,9.98545848 C33.9606559,10.1734178 34.017557,10.4783295 34.0920306,10.7239296 C34.4100076,11.7940445 35.2643616,12.1849998 36.1764536,12.1849998 C37.477649,12.1849998 38.1119294,11.3003381 38.1119294,10.5317935 C38.1119294,9.8233958 37.8960398,9.14256549 36.6977685,8.21529967 L36.0333639,7.69402591 C34.4418053,6.44764698 33.8895294,5.43433758 33.8895294,4.25980087 C33.8895294,2.66674148 35.2241961,1.53146738 37.2316352,1.53146738 C38.1696674,1.53146738 38.7746605,1.67431644 39.1436812,1.77456139 C39.270872,1.80296413 39.3428352,1.84640361 39.3428352,1.94581319 C39.3428352,2.13126635 39.2834237,2.55062441 39.2834237,3.67838014 C39.2834237,3.99582249 39.2424214,4.11277494 39.1311294,4.11277494 C39.0323892,4.11277494 38.9913869,4.02589598 38.9913869,3.85213806 C38.9913869,3.72098424 38.9185869,3.27405882 38.6148352,2.89730487 C38.397272,2.62246662 37.9763708,2.1889072 37.0433593,2.1889072 C35.9764628,2.1889072 35.3254467,2.81126129 35.3254467,3.68088626 C35.3254467,4.34667983 35.657649,4.85375222 36.8559203,5.76681667 L37.2600858,6.07089303 C38.9922237,7.41918766 39.6256674,8.38989296 39.6256674,9.76491958 C39.6256674,10.6053064 39.3093639,11.6044145 38.2700812,12.283574 C37.5496122,12.7396886 36.7412812,12.8666655 35.9614007,12.8666655 C35.1204352,12.8666655 34.4677455,12.7664206 33.8443432,12.4974299 M69.2778605,6.33320066 C69.3196996,6.33320066 69.364049,6.30479793 69.364049,6.23212033 L69.364049,5.92804397 C69.364049,3.72850261 69.364049,3.32251055 69.3347616,2.85971302 C69.3063111,2.36851274 69.1899984,2.1362786 68.7113593,2.0343629 C68.597557,2.00512478 68.3507065,1.99259417 68.1465317,1.99259417 C67.98838,1.99259417 67.9013547,1.9616853 67.9013547,1.8597696 C67.9013547,1.75618315 68.0034421,1.72778041 68.2042697,1.72778041 C68.9874973,1.72778041 69.8995892,1.77205527 70.2895294,1.77205527 C70.635957,1.77205527 71.5472122,1.72778041 72.1120398,1.72778041 C72.3153777,1.72778041 72.4166283,1.75618315 72.4166283,1.8597696 C72.4166283,1.9616853 72.329603,1.99259417 72.1555524,1.99259417 C72.0392398,1.99259417 71.9095386,2.00512478 71.7363249,2.0343629 C71.3447111,2.10704049 71.2292352,2.35264062 71.1991111,2.85971302 C71.1706605,3.32251055 71.1706605,3.72850261 71.1706605,5.92804397 L71.1706605,8.4742658 C71.1706605,9.80668831 71.1706605,10.9503162 71.2434605,11.5726702 C71.2869731,11.9778269 71.3731616,12.2961047 71.8082881,12.3554163 C72.011626,12.383819 72.329603,12.4122217 72.5463294,12.4055387 C72.7069915,12.4055387 72.7797915,12.4489782 72.7797915,12.5233266 C72.7797915,12.6260776 72.6626421,12.6695171 72.4894283,12.6695171 C71.5472122,12.6695171 70.635957,12.6260776 70.2317915,12.6260776 C69.8995892,12.6260776 68.9874973,12.6695171 68.4226697,12.6695171 C68.2193317,12.6695171 68.1180812,12.6260776 68.1180812,12.5233266 C68.1180812,12.4489782 68.1766559,12.4055387 68.3507065,12.4055387 C68.5665961,12.4055387 68.7406467,12.3763006 68.8711846,12.3554163 C69.1607111,12.2961047 69.2335111,11.9778269 69.2920858,11.5593043 C69.364049,10.9503162 69.364049,9.80668831 69.364049,8.4742658 L69.364049,7.20031951 C69.364049,7.14267866 69.3196996,7.11344055 69.2778605,7.11344055 L63.7366927,7.11344055 C63.6940168,7.11344055 63.6488306,7.1284773 63.6488306,7.20031951 L63.6488306,8.4742658 C63.6488306,9.80668831 63.6488306,10.9503162 63.7216306,11.5726702 C63.76598,11.9778269 63.8538421,12.2961047 64.2889685,12.3554163 C64.4906329,12.383819 64.8102835,12.4122217 65.0253363,12.4055387 C65.1851616,12.4055387 65.2571249,12.4489782 65.2571249,12.5233266 C65.2571249,12.6260776 65.1424858,12.6695171 64.9684352,12.6695171 C64.0270559,12.6695171 63.1141271,12.6260776 62.7099616,12.6260776 C62.3769226,12.6260776 61.4665042,12.6695171 60.8874513,12.6695171 C60.6983386,12.6695171 60.5970881,12.6260776 60.5970881,12.5233266 C60.5970881,12.4489782 60.654826,12.4055387 60.8280398,12.4055387 C61.0464398,12.4055387 61.2204904,12.3763006 61.3493547,12.3554163 C61.6405547,12.2961047 61.7133547,11.9786623 61.7702559,11.5601396 C61.8422191,10.9519869 61.8422191,9.81002981 61.8422191,8.47259505 L61.8422191,5.92804397 C61.8422191,3.72850261 61.8422191,3.32251055 61.8137685,2.85971302 C61.7844812,2.36851274 61.6681685,2.1362786 61.1903662,2.0343629 C61.0740536,2.00512478 60.8280398,1.99259417 60.6263754,1.99259417 C60.4657134,1.99259417 60.3803616,1.9616853 60.3803616,1.8597696 C60.3803616,1.75618315 60.4807754,1.72778041 60.6841134,1.72778041 C61.4665042,1.72778041 62.3769226,1.77205527 62.7676996,1.77205527 C63.1141271,1.77205527 64.0270559,1.72778041 64.5927203,1.72778041 C64.7960582,1.72778041 64.8973088,1.75618315 64.8973088,1.8597696 C64.8973088,1.9616853 64.8102835,1.99259417 64.6362329,1.99259417 C64.520757,1.99259417 64.3893823,2.00512478 64.2161685,2.0343629 C63.8228812,2.10704049 63.7074053,2.35264062 63.6789547,2.85971302 C63.6488306,3.32251055 63.6488306,3.72850261 63.6488306,5.92804397 L63.6488306,6.23212033 C63.6488306,6.30479793 63.6940168,6.33320066 63.7366927,6.33320066 L69.2778605,6.33320066 M86.3172444,9.75238896 C86.3172444,11.5317369 85.0110283,11.9435766 84.2378421,11.9435766 C83.8428812,11.9435766 83.448757,11.9260337 82.9843432,11.737239 C82.4345777,11.5150294 82.383534,11.2234837 82.383534,10.0948926 L82.383534,6.03747805 C82.383534,5.95226984 82.4170053,5.9171841 82.4864582,5.9171841 C82.7441869,5.9171841 82.9157271,5.9171841 83.2253363,5.9338916 C83.8947616,5.96814196 84.2897226,6.0884359 84.6503754,6.34489591 C85.9557547,7.25294811 86.3172444,8.68979245 86.3172444,9.75238896 L86.3172444,9.75238896 Z M80.3317455,7.69987353 C80.3317455,9.27455468 80.3317455,10.6261908 80.245557,11.3471191 C80.1769409,11.844167 80.0907524,12.2200856 79.7468352,12.2894217 C79.5928674,12.323672 79.3861823,12.357087 79.1284536,12.357087 C78.9226053,12.357087 78.8531524,12.4088802 78.8531524,12.4965946 C78.8531524,12.6177239 78.973649,12.6695171 79.1970697,12.6695171 C79.8849042,12.6695171 80.9643524,12.6177239 81.356803,12.6177239 C81.8705869,12.6177239 83.4311846,12.720475 83.8428812,12.720475 C87.0067524,12.720475 88.4368122,10.8149855 88.4368122,8.98384431 C88.4368122,6.97978061 86.7130421,5.76180443 85.3039019,5.2822994 C86.2628536,4.53213299 87.0711846,3.69007538 87.0711846,2.28246916 C87.0711846,1.3727462 86.5205823,-0.295496903 83.4018973,-0.295496903 C82.8144766,-0.295496903 82.1442145,-0.252057423 81.3049226,-0.252057423 C80.9643524,-0.252057423 79.8849042,-0.295496903 78.973649,-0.295496903 C78.7150835,-0.295496903 78.5962605,-0.261246544 78.5962605,-0.138446476 C78.5962605,-0.0181525314 78.6983478,0.0169332024 78.8874605,0.0169332024 C79.1284536,0.0169332024 79.4204904,0.0344760693 79.5577226,0.0695618031 C80.1258973,0.188184998 80.2639662,0.463023247 80.2974375,1.04778548 C80.3317455,1.59579122 80.3317455,2.076967 80.3317455,4.68584192 L80.3317455,7.69987353 L80.3317455,7.69987353 Z M82.383534,0.734519996 C82.383534,0.544889959 82.4170053,0.475553866 82.5383386,0.442138881 C82.7107157,0.407053147 82.8655203,0.407053147 83.1073501,0.407053147 C84.5918007,0.407053147 85.2654099,1.9190812 85.2654099,3.06855667 C85.2654099,3.90894353 85.0060076,4.52712075 84.5574927,4.8871672 C84.2637823,5.14446259 83.8847203,5.2129633 83.314872,5.2129633 C82.9182375,5.2129633 82.659672,5.19625581 82.5040306,5.16117008 C82.4354145,5.14446259 82.383534,5.11021223 82.383534,4.97321079 L82.383534,0.734519996 L82.383534,0.734519996 Z M115.512555,7.23206375 C115.249805,7.42085841 115.060693,7.48017001 114.479129,7.48017001 C114.115966,7.48017001 113.680003,7.43505978 113.374578,7.33397945 C113.27249,7.2897046 113.243203,7.23206375 113.243203,7.07417795 L113.243203,2.66674148 C113.243203,2.55145978 113.27249,2.49298356 113.374578,2.46458082 C113.520178,2.42030597 113.781254,2.40777535 114.145254,2.40777535 C115.002955,2.40777535 116.369419,3.0017267 116.369419,5.058419 C116.369419,6.24715708 115.947681,6.91378602 115.512555,7.23206375 M104.574982,7.23206375 C104.313906,7.42085841 104.123957,7.48017001 103.542394,7.48017001 C103.180067,7.48017001 102.743267,7.43505978 102.437842,7.33397945 C102.335755,7.2897046 102.305631,7.23206375 102.305631,7.07417795 L102.305631,2.66674148 C102.305631,2.55145978 102.335755,2.49298356 102.437842,2.46458082 C102.582605,2.42030597 102.845355,2.40777535 103.206844,2.40777535 C104.066219,2.40777535 105.43352,3.0017267 105.43352,5.058419 C105.43352,6.24715708 105.010946,6.91378602 104.574982,7.23206375 M94.5520122,8.16267107 L91.8876996,8.16267107 C91.8299616,8.16267107 91.8157363,8.12006696 91.8299616,8.06242611 L93.1612812,4.50540101 C93.17718,4.44776016 93.2047938,4.37424719 93.24998,4.37424719 C93.2934927,4.37424719 93.3060444,4.44776016 93.3211065,4.50540101 L94.6248122,8.07746286 C94.6390375,8.12006696 94.6248122,8.16267107 94.5520122,8.16267107 M121.337392,12.4055387 C121.221916,12.4055387 121.091378,12.3921727 120.932389,12.36377 C120.713989,12.3194951 120.120711,12.2192502 119.310706,11.3796987 C118.455516,10.4825064 117.456398,9.19602947 116.166081,7.57456734 C117.629612,6.38833539 118.078964,5.40509947 118.078964,4.33498458 C118.078964,3.36511466 117.499074,2.62747887 117.094072,2.353476 C116.311681,1.81633012 115.336831,1.72778041 114.421392,1.72778041 C113.971203,1.72778041 112.865815,1.77289064 112.374624,1.77289064 C112.070872,1.77289064 111.157106,1.72778041 110.388941,1.72778041 C110.172215,1.72778041 110.070964,1.75618315 110.070964,1.8597696 C110.070964,1.9616853 110.157989,1.99259417 110.316978,1.99259417 C110.521152,1.99259417 110.766329,2.00512478 110.881805,2.0343629 C111.360444,2.1362786 111.475083,2.36851274 111.504371,2.85971302 C111.533658,3.32167518 111.533658,3.72766724 111.533658,5.92637323 L111.533658,8.46591205 C111.533658,9.81002981 111.533658,10.9519869 111.461695,11.5601396 C111.40312,11.9794977 111.331157,12.29694 111.042467,12.3554163 C110.910256,12.3763006 110.737042,12.4055387 110.521152,12.4055387 C110.491865,12.4055387 110.472619,12.4088802 110.450026,12.410551 C110.434127,12.4088802 110.419902,12.4055387 110.401493,12.4055387 C110.284343,12.4055387 110.155479,12.3921727 109.99649,12.36377 C109.778927,12.3194951 109.184812,12.2192502 108.373134,11.3796987 C107.51878,10.4825064 106.518826,9.19602947 105.228509,7.57456734 C106.69204,6.38833539 107.141392,5.40509947 107.141392,4.33498458 C107.141392,3.36511466 106.563175,2.62747887 106.157336,2.353476 C105.374109,1.81633012 104.400095,1.72778041 103.484656,1.72778041 C103.033631,1.72778041 101.929916,1.77289064 101.437888,1.77289064 C101.134136,1.77289064 100.220371,1.72778041 99.4530421,1.72778041 C99.2354789,1.72778041 99.1342283,1.75618315 99.1342283,1.8597696 C99.1342283,1.9616853 99.2212536,1.99259417 99.3810789,1.99259417 C99.5827432,1.99259417 99.8295938,2.00512478 99.9459065,2.0343629 C100.423709,2.1362786 100.540021,2.36851274 100.570146,2.85971302 C100.596923,3.32167518 100.596923,3.72766724 100.596923,5.92637323 L100.596923,8.46591205 C100.596923,9.81002981 100.596923,10.9519869 100.524123,11.5601396 C100.467221,11.9794977 100.395258,12.29694 100.104058,12.3554163 C99.9751938,12.3763006 99.8003065,12.4055387 99.5827432,12.4055387 C99.5609869,12.4055387 99.5434145,12.4080449 99.5258421,12.4097156 C99.5024122,12.4063741 99.4747984,12.4055387 99.4446743,12.4055387 C99.2722973,12.4055387 99.054734,12.3921727 98.8380076,12.3470625 C98.5325823,12.2752203 98.1133547,12.073895 97.5627524,10.7707106 C96.637272,8.57116925 94.3193869,2.66841223 93.9729593,1.87397097 C93.8273593,1.5406565 93.7411708,1.40950268 93.6106329,1.40950268 C93.4667065,1.40950268 93.3788444,1.57072999 93.2047938,1.98925267 L89.5714881,11.0756223 C89.2819616,11.7990568 89.0066605,12.290257 88.3405823,12.3763006 C88.2242697,12.3921727 88.0226053,12.4055387 87.8920674,12.4055387 C87.7765915,12.4055387 87.7188536,12.4347768 87.7188536,12.5224912 C87.7188536,12.6411144 87.8042053,12.6695171 87.993318,12.6695171 C88.7464214,12.6695171 89.5413639,12.6252423 89.702026,12.6252423 C90.1505409,12.6252423 90.7739432,12.6695171 91.2366835,12.6695171 C91.395672,12.6695171 91.4826973,12.6411144 91.4826973,12.5224912 C91.4826973,12.4347768 91.4391846,12.4055387 91.2659708,12.4055387 L91.0475708,12.4055387 C90.5998927,12.4055387 90.468518,12.2192502 90.468518,11.9569426 C90.468518,11.7831846 90.541318,11.4356688 90.6860812,11.0756223 L91.468472,9.00556405 C91.4960858,8.92035584 91.5253731,8.89028236 91.5981731,8.89028236 L94.8281501,8.89028236 C94.9001134,8.89028236 94.9427892,8.92035584 94.9720766,8.99136269 L96.1293455,12.0588583 C96.2021455,12.2317808 96.100895,12.36377 96.0004812,12.3921727 C95.855718,12.4055387 95.79798,12.4347768 95.79798,12.5224912 C95.79798,12.6252423 95.9711938,12.6252423 96.2305961,12.6411144 C97.3895386,12.6695171 98.4480674,12.6695171 98.9685455,12.6695171 C99.2078651,12.6695171 99.3635065,12.6619987 99.4655938,12.6452912 C99.5116168,12.6594926 99.5676812,12.6695171 99.641318,12.6695171 C100.220371,12.6695171 101.134136,12.6252423 101.409437,12.6252423 C101.626164,12.6252423 102.698918,12.6695171 103.53821,12.6695171 C103.726486,12.6695171 103.827736,12.6252423 103.827736,12.5224912 C103.827736,12.4489782 103.769162,12.4055387 103.653686,12.4055387 C103.479635,12.4122217 103.162495,12.3829836 102.944932,12.3554163 C102.508969,12.29694 102.42278,11.9786623 102.379267,11.5576335 C102.305631,10.9469747 102.305631,9.80084069 102.305631,8.45254606 L102.305631,8.24955003 C102.305631,8.16100032 102.34998,8.13259758 102.42278,8.13259758 L103.682973,8.16100032 C103.784224,8.16100032 103.870412,8.17687244 103.943212,8.26291602 C104.132325,8.4809488 104.798403,9.46752622 105.378293,10.2661443 C106.200849,11.3796987 106.750615,12.0588583 107.374017,12.3921727 C107.751405,12.5968395 108.113732,12.6695171 108.9229,12.6695171 L110.300242,12.6695171 C110.354633,12.6695171 112.070872,12.6252423 112.345336,12.6252423 C112.5629,12.6252423 113.63398,12.6695171 114.475782,12.6695171 C114.663221,12.6695171 114.764472,12.6252423 114.764472,12.5224912 C114.764472,12.4489782 114.706734,12.4055387 114.591258,12.4055387 C114.417208,12.4122217 114.098394,12.3829836 113.879994,12.3554163 C113.446541,12.29694 113.359516,11.9786623 113.316003,11.5576335 C113.243203,10.9469747 113.243203,9.80084069 113.243203,8.45254606 L113.243203,8.24955003 C113.243203,8.16100032 113.285879,8.13259758 113.359516,8.13259758 L114.619709,8.16100032 C114.720959,8.16100032 114.807985,8.17687244 114.880785,8.26291602 C115.06906,8.4809488 115.735975,9.46752622 116.313355,10.2661443 C117.137585,11.3796987 117.68735,12.0588583 118.311589,12.3921727 C118.685631,12.5968395 119.048794,12.6695171 119.861309,12.6695171 L121.235304,12.6695171 C121.409355,12.6695171 121.511442,12.6411144 121.511442,12.5224912 C121.511442,12.4489782 121.454541,12.4055387 121.337392,12.4055387 M52.1656766,2.57652102 L54.3228996,2.5706734 L54.3228996,8.49682091 C54.3228996,9.83174955 54.3228996,10.9737066 54.2526099,11.5826947 C54.2082605,12.0012174 54.122072,12.3203305 53.8317088,12.3763006 C53.7020076,12.3996911 53.527957,12.4289292 53.309557,12.4289292 C53.1363432,12.4289292 53.0786053,12.4715333 53.0786053,12.5458817 C53.0786053,12.6477974 53.1798559,12.6920722 53.3681317,12.6920722 C53.9480214,12.6920722 54.8584398,12.6477974 55.1914789,12.6477974 C55.5956444,12.6477974 56.5085731,12.6920722 57.4633409,12.6920722 C57.6231662,12.6920722 57.7386421,12.6477974 57.7386421,12.5458817 C57.7386421,12.4715333 57.6675157,12.4289292 57.5085271,12.4289292 C57.2934743,12.4347768 56.9721501,12.4055387 56.7704858,12.3763006 C56.3345226,12.3203305 56.2474973,12.0012174 56.2048214,11.5977315 C56.1320214,10.9737066 56.1320214,9.83174955 56.1320214,8.50016241 L56.1320214,2.5706734 L57.9595524,2.61411288 C59.2515432,2.64251562 59.6423203,3.04683693 59.6716076,3.42359088 L59.6875065,3.58231206 C59.7017317,3.80034483 59.7285088,3.87302242 59.8431478,3.87302242 C59.9293363,3.87302242 59.9577869,3.78530809 59.9711754,3.63995291 C59.9711754,3.2648697 60.0138513,2.26576166 60.0138513,1.95917918 C60.0138513,1.74198178 60.0004628,1.65426745 59.9008858,1.65426745 C59.7862467,1.65426745 59.4398191,1.79878726 58.5118283,1.79878726 L52.77318,1.79878726 C52.3798927,1.79878726 49.4285639,1.79461038 49.1089134,1.79461038 C48.688849,1.79461038 48.2261088,1.75033553 47.7466329,1.75033553 C47.5734191,1.75033553 47.5022927,1.78040901 47.5022927,1.88232472 C47.5022927,1.97003905 47.6328306,1.99927716 47.7625317,2.02935065 C48.0093823,2.0869915 48.0654467,2.24571267 48.0654467,2.39023248 C48.0654467,2.57902714 48.0093823,2.82546266 47.8637823,3.14290501 C47.6604444,3.59233655 45.8396076,6.77511383 45.6956812,7.12346505 C45.466403,6.71830836 43.4497593,3.22978397 43.2472582,2.79538917 C43.1451708,2.59322851 43.0732076,2.41947059 43.0732076,2.3041889 C43.0732076,2.18807183 43.1451708,2.07195475 43.2757088,2.04271664 C43.493272,1.98591117 43.5945226,1.97003905 43.5945226,1.88232472 C43.5945226,1.79461038 43.5225593,1.75033553 43.3761226,1.75033553 C42.7259432,1.75033553 42.1318283,1.79461038 41.8272398,1.79461038 C41.3486007,1.79461038 40.2624582,1.75033553 40.0022191,1.75033553 C39.8273317,1.75033553 39.726918,1.79461038 39.726918,1.88232472 C39.726918,1.98591117 39.8273317,2.01431391 39.9444812,2.01431391 C40.1168582,2.01431391 40.3645455,2.10119287 40.5511478,2.20227319 C40.8272858,2.36099437 41.1896122,2.72271158 41.5519386,3.25902208 C42.0590283,4.01252998 43.9995249,7.19530726 44.1016122,7.42754141 C44.2898881,7.84773484 44.4346513,8.16601257 44.4346513,8.94792321 L44.4346513,10.1291429 C44.4346513,10.3672247 44.4346513,10.9737066 44.3903019,11.5826947 C44.3618513,12.0012174 44.2313134,12.3203305 43.9426237,12.3763006 C43.8104122,12.3996911 43.6371984,12.4289292 43.4346973,12.4289292 C43.2757088,12.4289292 43.2029088,12.4715333 43.2029088,12.5458817 C43.2029088,12.6628341 43.3183846,12.6920722 43.5225593,12.6920722 C44.0572628,12.6920722 44.9651708,12.6477974 45.3241501,12.6477974 C45.7107432,12.6477974 46.6178145,12.6920722 47.5307432,12.6920722 C47.7181823,12.6920722 47.834495,12.6477974 47.834495,12.5458817 C47.834495,12.4715333 47.7625317,12.4289292 47.6027065,12.4289292 C47.4002053,12.4347768 47.0813915,12.4055387 46.8788904,12.3763006 C46.4437639,12.3203305 46.3140628,12.0012174 46.2839386,11.5818594 C46.2420996,10.9728713 46.2420996,10.3647186 46.2420996,10.1349905 L46.2420996,8.94792321 C46.2420996,8.46925355 46.2420996,8.02065738 46.458826,7.49938362 C46.7190651,6.87702954 48.3256858,4.10776269 48.8043249,3.52801271 C49.1231386,3.13789276 49.2821271,2.96413484 49.5867157,2.81961503 C49.8034421,2.70349796 50.0787432,2.64585711 50.2235065,2.64585711 C50.2285271,2.64585711 50.2335478,2.64418636 50.2385685,2.64418636 L52.1656766,2.57652102" id="Fill-1"></path>
                </g>
            </g>
        </g>
    </g>
</svg>